<?xml version="1.0" encoding="utf-8"?>
<!-- Generator: Adobe Illustrator 20.1.0, SVG Export Plug-In . SVG Version: 6.00 Build 0)  -->
<svg version="1.1" id="Layer_1" xmlns="http://www.w3.org/2000/svg" xmlns:xlink="http://www.w3.org/1999/xlink" x="0px" y="0px"
	 viewBox="0 0 467 312.8" style="enable-background:new 0 0 467 312.8;" xml:space="preserve">
<style type="text/css">
	.st0{fill:none;stroke:#FFFFFF;stroke-miterlimit:10;}
</style>
<path class="st0" d="M458.9,237.7c-0.8,20.5-2,36.4-12.1,50c-6.7,9.1-15.7,15.2-26.2,19.1c-6.8,2.5-12.5,0.9-17.7-4.2
	c-14-13.6-28.1-27-42.3-40.3c-7.7-7.2-15.4-14.2-23.5-20.9c-7.4-6.1-16-9.3-25.7-9.3c-53.2,0-106.3-0.2-159.5,0.2
	c-5.8,0.1-12.3,3.2-17.4,6.5c-19.8,13.2-35.2,31.4-52.6,47.5c-5.9,5.4-11.9,10.7-17.6,16.3c-6,5.8-12.3,6.4-20,3.1
	c-21.8-9.2-32.3-26-34.5-49c-3.2-33,4.4-64.5,14.3-95.5c9.6-29.9,20.8-59.3,30.9-89c3.7-10.8,9.7-18.3,20.6-22.9
	c18.6-7.9,37.2-15.2,57.3-17.9c6.1-0.8,11.6-0.1,16.2,4.4c12.5,12.2,24.9,24.5,37.5,36.6c1.9,1.8,5.1,3.4,7.8,3.4
	c26.3,0.2,52.7,0.2,79,0c2.5,0,5.5-1.5,7.3-3.2c11-10.6,22-21.3,32.5-32.5c8-8.6,17.1-9.9,28.1-7.8c21.8,4.3,42,12.4,61.3,23
	c2.8,1.5,4.9,5.3,6.2,8.5c7.4,19.1,14.6,38.2,21.5,57.4c9.3,26.3,18.5,52.7,23.6,80.2C456.4,215,457.7,228.6,458.9,237.7z
	 M183.9,181.1c4.5,0,8.1,0,11.8,0c13.2,0,14-1,12.3-14.2c-0.4-3.4-1.6-5.3-5.6-5c-5.9,0.4-11.9,0.1-18.4,0.1c0-5.8,0-11.1,0-16.4
	c0-6.8-0.4-7.2-7.2-7.5c-10.7-0.6-11.5,0.2-11.7,10.7c-0.1,4.4,1.2,10.5-1.2,12.8c-2.4,2.3-8.4,1.1-12.9,1.1
	c-9.8,0.1-10.4,0.6-10.2,10.7c0,1,0,2,0.1,3c0.3,3.4,1.5,5.3,5.6,5.1c6.6-0.4,13.2-0.1,20.3-0.1c0,7.9,0,15.2,0,23.2
	c4.5,0.2,8.6,0.6,12.7,0.6c3.2,0.1,4.7-1.5,4.6-5C183.7,194.2,183.9,188.1,183.9,181.1z M395,99.9c0.2-8.6-6.8-15.5-15.9-15.7
	c-8-0.1-15,6.9-15.2,15.4c-0.2,8.3,6.9,15.5,15.4,15.7C387.6,115.5,394.7,108.5,395,99.9z M333.9,100c0-8.5-7-15.7-15.4-15.8
	c-8.3-0.1-15.7,7.4-15.7,16.1c0,8.2,7.3,15.1,16,15.1C327,115.3,333.9,108.3,333.9,100z M364.3,130.1c0.1-9.3-6.3-16-15.5-16
	c-8.1,0-15.1,7-15.3,15.4c-0.2,8.9,6.7,15.7,15.8,15.7C357.6,145.2,364.2,138.4,364.3,130.1z M364.3,69.8c0-8.7-6.9-15.2-16.3-15.1
	c-8.2,0.1-14.3,6.6-14.3,15.3c0,9.1,6.3,15.4,15.3,15.5C357.4,85.5,364.2,78.6,364.3,69.8z M152,99.1c0-19.6-14.4-33.9-34.2-34
	c-17.8-0.1-33.3,16.5-33.2,35.6c0.1,17.8,15.8,31.8,35.5,31.7C138.2,132.3,152.1,117.8,152,99.1z M291.1,200.4
	c19.6,0.6,33.1-14,33.5-32.7c0.5-19.6-14.6-34.4-34.3-34.6c-17.4-0.1-33.3,16.6-33.3,35.1C257.1,185.7,272.4,200.2,291.1,200.4z
	 M200.4,109.6c6.2,0,10.5-4.1,10.6-10.2c0.1-6-4.5-10.8-10.6-10.9c-5.6-0.2-10.7,5.1-10.6,11C189.8,105.3,194.3,109.6,200.4,109.6z
	 M267,109.6c6.4,0,11.1-4.3,11-10.3c-0.1-5.7-4.9-10.7-10.3-10.8c-5.8-0.1-10.8,4.7-10.9,10.7C256.6,105,261,109.5,267,109.6z"/>
<path class="st0" d="M73.2,46.3c2.1-4.5,3.7-8.4,5.6-12c1.1-2,2.5-4.2,4.3-5.2c19.7-11,39.9-20.5,63.2-20.8
	c6.1-0.1,11.6,1.4,16.6,4.5c7.5,4.7,15.5,6.1,24.3,6c34.1-0.3,68.3-0.2,102.4-0.4c2.4,0,5.3-0.3,7.1-1.6
	c15.2-11.1,31.8-10.1,48.2-4.8c12.7,4.1,24.9,10,37,15.8c3.3,1.6,5.6,5.7,7.9,9c1.8,2.6,2.9,5.8,4.1,8.2
	c-10.5-4.4-21.1-9.7-32.2-13.2c-11.5-3.6-23.5-5.9-35.4-7.7c-2.9-0.5-7.2,2.2-9.6,4.7c-12.9,13.2-25.4,26.8-38,40.3
	c-2.9,3.1-6.4,4.1-10.7,4.1c-22.7-0.2-45.3-0.2-68,0c-4.8,0.1-8.4-1.3-11.5-4.7c-11.8-12.6-24.1-24.9-35.4-38
	c-5.6-6.5-11.5-7.4-19-6C112.9,28.4,92.6,35,73.2,46.3z M217.1,59.4c9,9.3,21,10.6,29.6,3.7c1.3-1,2.4-4.2,1.8-5.1
	c-4.4-6.1-9.3-11.8-14.8-18.6C227.5,47,222.2,53.2,217.1,59.4z M251.7,57.3c4.6-6.1,4.9-12.6,2.2-18.9c-3.9-9.3-6-11.3-14.4-2.2
	c2.2,3.2,4.6,6.3,6.5,9.7C248,49.5,249.7,53.2,251.7,57.3z M228,35.4c-1.8-1.3-3.3-2.9-5.2-3.8c-1.4-0.6-3.7-1-4.7-0.3
	c-6.7,5.1-7.7,19.3-2.3,25C219.7,49.7,223.7,42.8,228,35.4z M224.7,26.6c6.3,5.4,12.2,4.9,18.2,0.1
	C236.9,23.4,230.9,23.6,224.7,26.6z"/>
<path class="st0" d="M149.9,99.3c0.5,16.8-12,30.5-28.5,31.1c-19,0.7-34-11.7-34.5-28.5c-0.5-17.7,13.3-34.1,29.2-34.4
	C135.6,66.9,149.9,79.5,149.9,99.3z M118.4,74.9c-13.1,0-23.9,10.9-24,24.3c-0.1,13.7,10.9,24.3,25.1,24.2
	c12.8-0.1,23.6-11.2,23.5-24.2C142.8,85.3,132.2,74.9,118.4,74.9z"/>
<path class="st0" d="M291.4,198.2c-18.1-0.2-32.3-13.5-32.2-30.1c0.1-17.8,14.7-33,31.5-32.8c18.6,0.2,32.2,14,31.9,32.4
	C322.5,185.4,309.1,198.4,291.4,198.2z M315.1,167.5c0.1-15.2-10.5-24.8-24.7-25c-12.9-0.2-23.9,12-23.7,25.4
	c0.2,12.8,11.4,23.2,25.1,23.3C304.6,191.2,315.2,180.5,315.1,167.5z"/>
<path class="st0" d="M318.8,97.4c-0.8-1.4-1.5-2.6-2.3-3.9c-0.3-0.4-0.6-0.9-1.1-1.1c-0.9-0.5-2-0.4-2.9-0.2c-0.4,0.1-0.6,0.5-0.5,1
	c0.1,0.3,0.2,0.5,0.4,0.8c1.1,1.7,2.1,3.4,3.3,5.1c0.9,1.3,1.3,2.5,1.2,4.1c-0.1,0.9,0,1.8,0,2.7c0,1.1,0.5,1.6,1.6,1.6
	c0.2,0,0.4,0,0.6,0c1.1,0,1.6-0.5,1.6-1.6c0-1.2,0-2.4,0-3.7c0-0.6,0.1-1.2,0.4-1.7c0.7-1.3,1.5-2.4,2.3-3.6c0.7-1.1,1.4-2.2,2-3.3
	c0.4-0.6,0.2-1.1-0.4-1.3c-1.7-0.6-3.2,0.1-4.1,1.6C320.2,95,319.5,96.1,318.8,97.4z"/>
<path class="st0" d="M349,73.2c0.6,0.9,1.1,1.6,1.6,2.5c0.9,1.8,2.2,2.5,4.2,2.3c1.1-0.1,1.4-0.7,0.9-1.6c-0.1-0.3-0.3-0.5-0.5-0.7
	c-1.1-1.6-2.1-3.2-3.2-4.7c-0.5-0.7-0.5-1.3,0-2c0.6-0.9,1.1-1.7,1.7-2.6c0.5-0.8,1.1-1.6,1.6-2.5c0.4-0.7,0.2-1.3-0.5-1.4
	c-2.1-0.5-3.2,0-4.3,1.9c-0.4,0.8-0.9,1.5-1.4,2.3c-0.7-1.1-1.4-2.2-2-3.2c-0.4-0.7-1.1-1.1-1.9-1.1c-0.4,0-0.8,0-1.3,0
	c-0.5,0-1,0-1.2,0.5c-0.1,0.4,0.1,0.9,0.3,1.2c1,1.6,2.1,3.2,3.1,4.8c0.4,0.6,0.5,1.2,0,1.8c-0.6,0.8-1.1,1.7-1.7,2.6
	c-0.7,1-1.4,2.1-2,3.1c-0.6,0.9-0.2,1.5,0.8,1.6c0.5,0,1,0,1.5,0c0.9-0.1,1.6-0.5,2.1-1.3C347.5,75.5,348.2,74.4,349,73.2z"/>
<path class="st0" d="M379.4,92c-1.6,0-2,0.2-2.5,1.7c-1.3,3.4-2.7,6.9-4,10.3c-0.3,0.8-0.6,1.6-0.8,2.4c-0.2,0.7,0.1,1.1,0.8,1.2
	c0.6,0.1,1.2,0.1,1.8,0c0.4-0.1,0.9-0.5,1.2-0.8c0.3-0.4,0.4-1,0.6-1.5c0.2-0.6,0.6-0.9,1.3-0.9c1.1,0,2.3,0,3.4,0
	c0.6,0,1,0.3,1.2,0.9c0.1,0.4,0.3,0.9,0.5,1.3c0.3,0.8,0.9,1.1,1.7,1.2c0.4,0,0.8,0,1.3,0c1-0.1,1.4-0.7,1-1.6
	c-1.6-4.1-3.3-8.2-4.9-12.3C381.4,92.2,380.9,92,379.4,92z"/>
<path class="st0" d="M379.3,97.3c0.2,0.6,0.4,1,0.6,1.5c0.2,0.7,0.5,1.3,0.7,2.1c-0.9,0-1.7,0-2.6,0
	C378.5,99.6,378.9,98.5,379.3,97.3z"/>
<path class="st0" d="M353.8,129c0.1-0.1,0.2-0.2,0.3-0.3c1.2-1.2,1.6-2.6,1.1-4.2c-0.6-1.9-1.9-3-4-3.1c-2.5-0.1-5-0.1-7.5-0.1
	c-1.4,0-1.9,0.5-1.9,1.9c0,2.2,0,4.3,0,6.5c0,2.3,0,4.5,0,6.8c0,1.1,0.5,1.7,1.5,1.7c2.7,0,5.3,0,8-0.1c1.1,0,2.2-0.4,3.1-1.2
	c1.7-1.6,2.4-4.9,0.4-6.8C354.5,129.6,354.1,129.4,353.8,129z"/>
<path class="st0" d="M348.3,134.5c-0.6,0-1.1,0-1.7,0c-0.4,0-0.6-0.2-0.6-0.6c0-0.7,0-1.3,0-2c0-0.5,0.2-0.7,0.7-0.7
	c1.3,0,2.5,0.1,3.8,0.2c0.9,0.1,1.4,0.7,1.4,1.5c0,0.9-0.5,1.4-1.4,1.6c-0.1,0-0.2,0.1-0.3,0.1C349.5,134.4,348.9,134.4,348.3,134.5
	C348.3,134.4,348.3,134.5,348.3,134.5z"/>
<path class="st0" d="M348.3,124.9c0.5,0,1,0,1.5,0c0.9,0,1.3,0.4,1.4,1.1c0.1,0.8-0.3,1.3-1.1,1.4c-1.2,0.1-2.4,0.1-3.7,0.1
	c-0.2,0-0.4-0.3-0.4-0.5c-0.1-0.4,0-0.9,0-1.3c-0.1-0.7,0.3-0.9,0.9-0.8C347.3,124.8,347.8,124.8,348.3,124.9
	C348.3,124.8,348.3,124.8,348.3,124.9z"/>
</svg>
